Coordinates
version=1
nRows=13
nColumns=40
inDegrees=yes

Units are S.I. units (second, meters, Newtons, ...)
Angles are in degrees.

endheader
time	pelvis_tilt	pelvis_list	pelvis_rotation	pelvis_tx	pelvis_ty	pelvis_tz	hip_flexion_r	hip_adduction_r	hip_rotation_r	knee_angle_r	knee_angle_r_beta	ankle_angle_r	subtalar_angle_r	mtp_angle_r	hip_flexion_l	hip_adduction_l	hip_rotation_l	knee_angle_l	knee_angle_l_beta	ankle_angle_l	subtalar_angle_l	mtp_angle_l	lumbar_extension	lumbar_bending	lumbar_rotation	arm_flex_r	arm_add_r	arm_rot_r	elbow_flex_r	pro_sup_r	wrist_flex_r	wrist_dev_r	arm_flex_l	arm_add_l	arm_rot_l	elbow_flex_l	pro_sup_l	wrist_flex_l	wrist_dev_l
     36.97000000	     -1.00311918	     -5.17599194	      1.23725786	      0.94596204	      0.92509275	      0.55330260	     13.76898820	      5.56224092	    -13.18100579	     23.20083732	     23.20083732	     13.03186065	     -3.74265657	     -3.26307898	     21.21784582	    -15.25340713	     -1.35872009	     67.65372322	     67.65372322	      8.70446941	    -19.44976904	     20.39805379	    -10.91778326	      8.72967472	      1.14218432	      1.00700003	    -14.83638380	    -13.71484042	     43.44582712	     44.55473669	      0.00000000	      0.00000000	     12.33106180	     -9.44581495	      5.34982777	     36.20550725	     44.75984829	      0.00000000	      0.00000000
     36.99092857	     -0.85933977	     -5.39082278	      1.76821212	      0.94518520	      0.92391195	      0.55608157	     13.58874156	      5.87526713	    -13.61110610	     23.86146455	     23.86146455	     13.66878205	     -4.01175716	     -3.41652686	     22.91130025	    -15.95366013	     -1.47459352	     67.18592652	     67.18592652	      9.86961183	    -19.50208341	     20.54175065	    -11.09870181	      8.66543662	      1.36098492	      2.79842143	    -14.35231306	    -13.55330475	     44.33972131	     44.54019196	      0.00000000	      0.00000000	      9.74351008	     -9.43128536	      5.75824814	     34.41070448	     44.69418012	      0.00000000	      0.00000000
     37.01185714	     -0.68949115	     -5.54953212	      2.28708996	      0.94436605	      0.92272511	      0.55886005	     13.38176508	      6.15263144	    -13.96761354	     24.54464824	     24.54464824	     14.40343951	     -4.31150261	     -3.24734206	     24.51473274	    -16.51195772	     -1.59843872	     66.35388820	     66.35388820	     11.22531208	    -19.54252111	     21.35404808	    -11.28543025	      8.49355241	      1.48064690	      4.90354227	    -13.95534863	    -12.94780835	     45.02972451	     44.52564891	      0.00000000	      0.00000000	      7.25140022	     -9.46299054	      6.52041639	     31.89698823	     44.60002147	      0.00000000	      0.00000000
     37.03278571	     -0.50608712	     -5.71515746	      2.81779630	      0.94338192	      0.92144709	      0.56132570	     13.21264800	      6.42668251	    -14.27071241	     25.31956859	     25.31956859	     15.36878893	     -4.58826794	     -2.34238228	     26.03125161	    -16.93151439	     -1.63644014	     65.16816909	     65.16816909	     12.72646369	    -19.56801596	     22.70656641	    -11.51071493	      8.37803697	      1.78005062	      7.22151984	    -13.97365597	    -11.21891092	     45.10397497	     44.52530859	      0.00000000	      0.00000000	      5.20254234	     -9.43848294	      8.05249367	     28.58997055	     44.46013680	      0.00000000	      0.00000000
     37.05371429	     -0.34635142	     -5.77104330	      3.34462658	      0.94227418	      0.92010956	      0.56343108	     13.05995679	      6.59569300	    -14.46014346	     26.03207545	     26.03207545	     15.98610313	     -5.14706472	     -2.33862203	     27.34161065	    -17.14872352	     -1.76249438	     63.42842730	     63.42842730	     13.62810150	    -19.57905828	     22.65624824	    -11.76809914	      8.16658585	      1.94622978	      9.44360174	    -13.69394103	    -10.98880273	     46.37168611	     44.49793183	      0.00000000	      0.00000000	      2.60369409	     -9.54775634	      8.47056811	     27.04093169	     44.38141553	      0.00000000	      0.00000000
     37.07464286	     -0.22077072	     -5.80177792	      3.90062858	      0.94098350	      0.91887659	      0.56503940	     12.93477337	      6.74557019	    -14.57258357	     26.70680034	     26.70680034	     16.88832139	     -5.74095874	     -1.24796873	     28.53091523	    -17.13148721	     -1.73623290	     61.25627353	     61.25627353	     14.47347380	    -19.57946067	     23.01936387	    -11.92937203	      7.96048813	      1.98412152	     12.01004451	    -13.90799450	     -8.92760492	     47.11146907	     44.48860569	      0.00000000	      0.00000000	      0.22631556	     -9.73182367	     10.02637400	     25.16391902	     44.21457250	      0.00000000	      0.00000000
     37.09557143	     -0.13935067	     -5.72329611	      4.46436739	      0.93950637	      0.91775177	      0.56604450	     12.81450139	      6.74911138	    -14.68283892	     27.25047740	     27.25047740	     17.34394247	     -6.48392112	     -1.27942888	     29.49326548	    -16.83036250	     -1.68410157	     58.57258545	     58.57258545	     14.93637678	    -19.56549537	     22.81165818	    -12.11869232	      7.73278365	      2.11353029	     14.43479053	    -13.86006884	     -8.93901394	     48.62969709	     44.46440769	      0.00000000	      0.00000000	     -2.12587970	     -9.83201743	     10.30897153	     24.19960504	     44.14699097	      0.00000000	      0.00000000
     37.11650000	     -0.08536791	     -5.56157168	      5.04706875	      0.93782534	      0.91689664	      0.56649325	     12.65874640	      6.66956874	    -14.69059281	     27.64579805	     27.64579805	     17.72900675	     -7.31321416	     -1.21328978	     30.26378730	    -16.22457019	     -1.43247972	     55.50104493	     55.50104493	     15.09847180	    -19.53319311	     22.52623152	    -12.23824284	      7.40800950	      2.31413087	     16.98254067	    -13.91340529	     -8.83476377	     50.19428425	     44.43275761	      0.00000000	      0.00000000	     -4.30768825	     -9.89302559	     10.56618315	     23.46309000	     44.07914101	      0.00000000	      0.00000000
     37.13742857	     -0.13486274	     -5.40984026	      5.67317197	      0.93595973	      0.91628318	      0.56635825	     12.54409028	      6.59369848	    -14.68682324	     27.86928917	     27.86928917	     18.11363858	     -8.18491562	     -0.69050415	     30.87022009	    -15.46532388	     -1.03126292	     51.96739974	     51.96739974	     14.47546897	    -19.47412583	     20.77589368	    -12.26853215	      7.17455400	      2.21897132	     19.66285475	    -14.33625309	     -7.50897820	     52.16202349	     44.40123189	      0.00000000	      0.00000000	     -6.85861764	    -10.19786690	     11.40087618	     24.15936526	     43.94664989	      0.00000000	      0.00000000
     37.15835714	     -0.23481652	     -5.08058142	      6.32249778	      0.93391566	      0.91615195	      0.56557618	     12.36502019	      6.25706985	    -14.80147290	     27.91097487	     27.91097487	     18.30273198	     -8.84776931	     -0.63142875	     31.26999464	    -14.30547050	     -0.40809988	     48.18936839	     48.18936839	     14.13779382	    -19.36069651	     20.61342627	    -12.23739275	      6.77908880	      2.42638780	     22.37943353	    -14.68647614	     -7.60915424	     53.73924284	     44.37808659	      0.00000000	      0.00000000	     -8.54670615	    -10.19975172	     11.60468978	     23.73783495	     43.89526783	      0.00000000	      0.00000000
     37.17928571	     -0.43350624	     -4.72530488	      7.01628207	      0.93170946	      0.91639625	      0.56426831	     12.14663729	      5.87476880	    -14.94160151	     27.67414242	     27.67414242	     18.39109474	     -9.41838152	     -0.51657881	     31.54258448	    -12.98538408	      0.45475318	     44.19828545	     44.19828545	     13.44287553	    -19.14590349	     20.18410356	    -12.09539466	      6.39433017	      2.57426388	     25.16091375	    -15.17702877	     -7.68838985	     55.42010300	     44.34866304	      0.00000000	      0.00000000	    -10.06447637	    -10.16332797	     11.74927606	     23.61197880	     43.85125672	      0.00000000	      0.00000000
     37.20021429	     -0.61929739	     -4.48779089	      7.67377434	      0.92956229	      0.91690543	      0.56275256	     11.80433087	      5.62289663	    -15.13164900	     27.21950595	     27.21950595	     18.34000881	     -9.90465205	     -0.60944211	     31.41476057	    -11.92094262	      1.13388583	     39.72147513	     39.72147513	     10.80384626	    -18.84602422	     14.58396132	    -12.02214532	      6.17206033	      2.36522424	     28.14980879	    -15.83217669	     -6.59164162	     57.86323074	     44.40080064	      0.00000000	      0.00000000	    -12.38091053	    -10.54303703	     13.22608380	     25.69493101	     43.72758032	      0.00000000	      0.00000000
     37.22114286	     -0.86575034	     -4.15003309	      8.35414784	      0.92733774	      0.91793545	      0.56078782	     11.37145487	      5.21888094	    -15.44336888	     26.52948547	     26.52948547	     18.27241109	    -10.05546957	     -0.50866319	     31.30729566	    -10.62316722	      2.18408915	     35.62101269	     35.62101269	     10.03008859	    -18.09272944	     14.26059929	    -11.83780766	      5.84180589	      2.48494394	     31.07715463	    -16.40385933	     -6.78255172	     59.63783039	     44.38104322	      0.00000000	      0.00000000	    -13.51409805	    -10.42893322	     13.38357670	     25.85421644	     43.70679100	      0.00000000	      0.00000000
